<svg width="109" height="24" viewBox="0 0 109 24" fill="none" xmlns="http://www.w3.org/2000/svg">
<path d="M15.4555 19.6924V23.5575H0V0H4.34053V19.6924H15.4602H15.4555Z" fill="#F9FAEF"/>
<path d="M23.8309 15.0177C26.2695 15.0177 27.5595 14.1044 28.3739 12.5084L31.7635 14.6787C30.4076 16.8819 28.0349 18.7132 23.6944 18.7132C17.9981 18.7132 14.2695 14.6787 14.2695 9.35896C14.2695 4.03923 18.3041 0 23.4214 0C29.0471 0 32.4743 4.40643 32.4743 8.98235C32.4743 9.66026 32.4414 10.3382 32.3708 10.7101H18.5065C19.0808 13.3888 21.1522 15.0129 23.8262 15.0129L23.8309 15.0177ZM28.3362 7.69714C27.8607 5.01844 26.0294 3.39427 23.5249 3.39427C21.0204 3.39427 19.0526 4.95253 18.5065 7.69714H28.3362Z" fill="#F9FAEF"/>
<path d="M45.0482 13.6289H43.6923V23.5622H39.3848V0H48.7061C53.6539 0 56.7751 2.84818 56.7751 6.81208C56.7751 10.5077 54.0305 13.2523 49.69 13.5912L57.0811 23.5575H52.2322L45.0435 13.6242L45.0482 13.6289ZM43.6923 10.5406H48.6072C51.1164 10.5406 52.5052 9.18478 52.5052 7.15104C52.5052 5.1173 51.1164 3.79443 48.6072 3.79443H43.6923V10.5406Z" fill="#F9FAEF"/>
<path d="M65.8944 20.3045C68.333 20.3045 69.6229 19.3912 70.4374 17.7952L73.8269 19.9655C72.4711 22.1687 70.0984 24 65.7579 24C60.0615 24 56.333 19.9655 56.333 14.6458C56.333 9.32603 60.3675 5.2915 65.4848 5.2915C71.1106 5.2915 74.5378 9.69794 74.5378 14.2739C74.5378 14.9518 74.5048 15.6297 74.4342 16.0016H60.57C61.1443 18.6803 63.2157 20.3045 65.8897 20.3045H65.8944ZM70.3997 12.9839C69.9242 10.3052 68.0929 8.68107 65.5884 8.68107C63.0839 8.68107 61.1161 10.2393 60.57 12.9839H70.3997Z" fill="#F9FAEF"/>
<path d="M91.8239 5.69629L85.0119 23.5621H80.064L73.252 5.69629H77.7243L82.5356 19.424L87.3469 5.69629H91.8192H91.8239Z" fill="#F9FAEF"/>
<path d="M100.096 20.3045C102.534 20.3045 103.824 19.3912 104.639 17.7952L108.028 19.9655C106.672 22.1687 104.3 24 99.9591 24C94.2627 24 90.5342 19.9655 90.5342 14.6458C90.5342 9.32603 94.5687 5.2915 99.686 5.2915C105.312 5.2915 108.739 9.69794 108.739 14.2739C108.739 14.9518 108.706 15.6297 108.635 16.0016H94.7711C95.3455 18.6803 97.4169 20.3045 100.091 20.3045H100.096ZM104.601 12.9839C104.125 10.3052 102.294 8.68107 99.7896 8.68107C97.2851 8.68107 95.3172 10.2393 94.7711 12.9839H104.601Z" fill="#F9FAEF"/>
</svg>
